<mxfile host="65bd71144e">
    <diagram id="bhwaB4TbFwDAQiQrL6z8" name="Page-1">
        <mxGraphModel dx="2505" dy="1428" grid="0" gridSize="19" guides="1" tooltips="1" connect="1" arrows="1" fold="1" page="1" pageScale="1" pageWidth="1100" pageHeight="1700" background="#ffffff" math="0" shadow="0">
            <root>
                <mxCell id="0"/>
                <mxCell id="1" parent="0"/>
                <mxCell id="2" value="" style="rounded=0;whiteSpace=wrap;html=1;" parent="1" vertex="1">
                    <mxGeometry x="40" y="120" width="20" height="560" as="geometry"/>
                </mxCell>
                <mxCell id="3" value="" style="endArrow=none;dashed=1;html=1;strokeWidth=8;strokeColor=#1b1818;rounded=0;endSize=6;jumpSize=2;startArrow=none;" parent="1" source="4" edge="1">
                    <mxGeometry width="50" height="50" relative="1" as="geometry">
                        <mxPoint x="269" y="680" as="sourcePoint"/>
                        <mxPoint x="269" y="120" as="targetPoint"/>
                    </mxGeometry>
                </mxCell>
                <mxCell id="5" value="" style="endArrow=none;dashed=1;html=1;strokeWidth=8;strokeColor=#1b1818;rounded=0;endSize=6;jumpSize=2;" parent="1" target="4" edge="1">
                    <mxGeometry width="50" height="50" relative="1" as="geometry">
                        <mxPoint x="269" y="680" as="sourcePoint"/>
                        <mxPoint x="269" y="120" as="targetPoint"/>
                    </mxGeometry>
                </mxCell>
                <mxCell id="4" value="" style="rounded=0;whiteSpace=wrap;html=1;strokeColor=#BD7000;fillColor=#f0a30a;fontColor=#000000;" parent="1" vertex="1">
                    <mxGeometry x="259" y="240" width="20" height="60" as="geometry"/>
                </mxCell>
                <mxCell id="6" value="" style="endArrow=none;dashed=1;html=1;strokeWidth=8;strokeColor=#1b1818;rounded=0;endSize=6;jumpSize=2;startArrow=none;" parent="1" source="8" edge="1">
                    <mxGeometry width="50" height="50" relative="1" as="geometry">
                        <mxPoint x="489" y="680" as="sourcePoint"/>
                        <mxPoint x="489" y="120" as="targetPoint"/>
                    </mxGeometry>
                </mxCell>
                <mxCell id="7" value="" style="endArrow=none;dashed=1;html=1;strokeWidth=8;strokeColor=#1b1818;rounded=0;endSize=6;jumpSize=2;" parent="1" target="8" edge="1">
                    <mxGeometry width="50" height="50" relative="1" as="geometry">
                        <mxPoint x="489" y="680" as="sourcePoint"/>
                        <mxPoint x="489" y="120" as="targetPoint"/>
                    </mxGeometry>
                </mxCell>
                <mxCell id="8" value="" style="rounded=0;whiteSpace=wrap;html=1;strokeColor=#BD7000;fillColor=#f0a30a;fontColor=#000000;" parent="1" vertex="1">
                    <mxGeometry x="477" y="293" width="20" height="60" as="geometry"/>
                </mxCell>
                <mxCell id="9" value="" style="endArrow=none;dashed=1;html=1;strokeWidth=8;strokeColor=#1b1818;rounded=0;endSize=6;jumpSize=2;startArrow=none;" parent="1" edge="1">
                    <mxGeometry width="50" height="50" relative="1" as="geometry">
                        <mxPoint x="724" y="344" as="sourcePoint"/>
                        <mxPoint x="729" y="120" as="targetPoint"/>
                    </mxGeometry>
                </mxCell>
                <mxCell id="10" value="" style="endArrow=none;dashed=1;html=1;strokeWidth=8;strokeColor=#1b1818;rounded=0;endSize=6;jumpSize=2;" parent="1" target="11" edge="1">
                    <mxGeometry width="50" height="50" relative="1" as="geometry">
                        <mxPoint x="729" y="680" as="sourcePoint"/>
                        <mxPoint x="729" y="120" as="targetPoint"/>
                    </mxGeometry>
                </mxCell>
                <mxCell id="11" value="" style="rounded=0;whiteSpace=wrap;html=1;strokeColor=#BD7000;fillColor=#f0a30a;fontColor=#000000;" parent="1" vertex="1">
                    <mxGeometry x="711" y="346" width="20" height="60" as="geometry"/>
                </mxCell>
                <mxCell id="15" value="" style="endArrow=none;dashed=1;html=1;strokeWidth=8;strokeColor=#1b1818;rounded=0;endSize=6;jumpSize=2;startArrow=none;" parent="1" source="17" edge="1">
                    <mxGeometry width="50" height="50" relative="1" as="geometry">
                        <mxPoint x="968" y="680" as="sourcePoint"/>
                        <mxPoint x="968" y="120" as="targetPoint"/>
                    </mxGeometry>
                </mxCell>
                <mxCell id="16" value="" style="endArrow=none;dashed=1;html=1;strokeWidth=8;strokeColor=#1b1818;rounded=0;endSize=6;jumpSize=2;" parent="1" target="17" edge="1">
                    <mxGeometry width="50" height="50" relative="1" as="geometry">
                        <mxPoint x="968" y="680" as="sourcePoint"/>
                        <mxPoint x="968" y="120" as="targetPoint"/>
                    </mxGeometry>
                </mxCell>
                <mxCell id="17" value="" style="rounded=0;whiteSpace=wrap;html=1;strokeColor=#BD7000;fillColor=#f0a30a;fontColor=#000000;" parent="1" vertex="1">
                    <mxGeometry x="958" y="240" width="20" height="60" as="geometry"/>
                </mxCell>
                <mxCell id="18" value="Actor" style="shape=umlActor;verticalLabelPosition=bottom;verticalAlign=top;html=1;outlineConnect=0;strokeColor=#1d1d1b;strokeWidth=5;" parent="1" vertex="1">
                    <mxGeometry x="35" y="47" width="30" height="60" as="geometry"/>
                </mxCell>
                <mxCell id="20" value="&lt;b&gt;&lt;font color=&quot;#f3f1f1&quot; style=&quot;font-size: 16px;&quot;&gt;Login Screen&lt;/font&gt;&lt;/b&gt;" style="rounded=0;whiteSpace=wrap;html=1;strokeColor=#C73500;strokeWidth=5;fillColor=#fa6800;fontColor=#000000;" parent="1" vertex="1">
                    <mxGeometry x="192.5" y="62" width="153" height="42" as="geometry"/>
                </mxCell>
                <mxCell id="21" value="&lt;b&gt;&lt;font color=&quot;#fcf8f8&quot; style=&quot;font-size: 18px;&quot;&gt;Verification&lt;/font&gt;&lt;/b&gt;" style="rounded=0;whiteSpace=wrap;html=1;strokeColor=#C73500;strokeWidth=5;fillColor=#fa6800;fontColor=#000000;" parent="1" vertex="1">
                    <mxGeometry x="418" y="62" width="153" height="42" as="geometry"/>
                </mxCell>
                <mxCell id="22" value="&lt;b&gt;&lt;font style=&quot;font-size: 18px;&quot; color=&quot;#fcf8f8&quot;&gt;Database&lt;/font&gt;&lt;/b&gt;" style="rounded=0;whiteSpace=wrap;html=1;strokeColor=#C73500;strokeWidth=5;fillColor=#fa6800;fontColor=#000000;" parent="1" vertex="1">
                    <mxGeometry x="654" y="59" width="153" height="42" as="geometry"/>
                </mxCell>
                <mxCell id="23" value="&lt;font color=&quot;#fcf8f8&quot;&gt;&lt;span style=&quot;font-size: 18px;&quot;&gt;&lt;b&gt;HomeScreen&lt;/b&gt;&lt;/span&gt;&lt;/font&gt;" style="rounded=0;whiteSpace=wrap;html=1;strokeColor=#C73500;strokeWidth=5;fillColor=#fa6800;fontColor=#000000;" parent="1" vertex="1">
                    <mxGeometry x="879.5" y="59" width="153" height="42" as="geometry"/>
                </mxCell>
                <mxCell id="24" value="" style="endArrow=classic;html=1;fontSize=18;fontColor=#fcf8f8;strokeWidth=3;strokeColor=#0a0000;" edge="1" parent="1">
                    <mxGeometry width="50" height="50" relative="1" as="geometry">
                        <mxPoint x="63" y="249" as="sourcePoint"/>
                        <mxPoint x="259" y="249" as="targetPoint"/>
                    </mxGeometry>
                </mxCell>
                <mxCell id="25" value="" style="endArrow=classic;html=1;fontSize=18;fontColor=#fcf8f8;strokeWidth=3;strokeColor=#0a0000;" edge="1" parent="1">
                    <mxGeometry width="50" height="50" relative="1" as="geometry">
                        <mxPoint x="279" y="298.67" as="sourcePoint"/>
                        <mxPoint x="475" y="298.67" as="targetPoint"/>
                    </mxGeometry>
                </mxCell>
                <mxCell id="26" value="" style="endArrow=classic;html=1;fontSize=18;fontColor=#fcf8f8;strokeWidth=3;strokeColor=#0a0000;" edge="1" parent="1">
                    <mxGeometry width="50" height="50" relative="1" as="geometry">
                        <mxPoint x="508" y="353.00000000000006" as="sourcePoint"/>
                        <mxPoint x="704" y="353.00000000000006" as="targetPoint"/>
                    </mxGeometry>
                </mxCell>
                <mxCell id="27" value="" style="endArrow=classic;html=1;fontSize=18;fontColor=#fcf8f8;strokeWidth=3;strokeColor=#0a0000;" edge="1" parent="1">
                    <mxGeometry width="50" height="50" relative="1" as="geometry">
                        <mxPoint x="258" y="622" as="sourcePoint"/>
                        <mxPoint x="63" y="622" as="targetPoint"/>
                    </mxGeometry>
                </mxCell>
                <mxCell id="28" value="" style="endArrow=classic;html=1;fontSize=18;fontColor=#fcf8f8;strokeWidth=3;strokeColor=#0a0000;dashed=1;" edge="1" parent="1">
                    <mxGeometry width="50" height="50" relative="1" as="geometry">
                        <mxPoint x="481" y="527" as="sourcePoint"/>
                        <mxPoint x="277" y="527" as="targetPoint"/>
                    </mxGeometry>
                </mxCell>
                <mxCell id="29" value="" style="endArrow=classic;html=1;fontSize=18;fontColor=#fcf8f8;strokeWidth=3;strokeColor=#0a0000;dashed=1;" edge="1" parent="1">
                    <mxGeometry width="50" height="50" relative="1" as="geometry">
                        <mxPoint x="714" y="606" as="sourcePoint"/>
                        <mxPoint x="273" y="606" as="targetPoint"/>
                    </mxGeometry>
                </mxCell>
                <mxCell id="34" value="Login to screen" style="text;html=1;align=center;verticalAlign=middle;resizable=0;points=[];autosize=1;strokeColor=none;fillColor=none;fontSize=18;fontColor=#100f0f;" vertex="1" parent="1">
                    <mxGeometry x="83" y="257" width="141" height="34" as="geometry"/>
                </mxCell>
                <mxCell id="35" value="check login details" style="text;html=1;align=center;verticalAlign=middle;resizable=0;points=[];autosize=1;strokeColor=none;fillColor=none;fontSize=18;fontColor=#100f0f;" vertex="1" parent="1">
                    <mxGeometry x="286" y="259" width="165" height="34" as="geometry"/>
                </mxCell>
                <mxCell id="36" value="invalid login details" style="text;html=1;align=center;verticalAlign=middle;resizable=0;points=[];autosize=1;strokeColor=none;fillColor=none;fontSize=18;fontColor=#100f0f;" vertex="1" parent="1">
                    <mxGeometry x="301" y="484" width="169" height="34" as="geometry"/>
                </mxCell>
                <mxCell id="37" value="valid login details" style="text;html=1;align=center;verticalAlign=middle;resizable=0;points=[];autosize=1;strokeColor=none;fillColor=none;fontSize=18;fontColor=#100f0f;" vertex="1" parent="1">
                    <mxGeometry x="519" y="312" width="155" height="34" as="geometry"/>
                </mxCell>
                <mxCell id="38" value="logged out from application" style="text;html=1;align=center;verticalAlign=middle;resizable=0;points=[];autosize=1;strokeColor=none;fillColor=none;fontSize=18;fontColor=#100f0f;" vertex="1" parent="1">
                    <mxGeometry x="370.5" y="626" width="234" height="34" as="geometry"/>
                </mxCell>
                <mxCell id="39" value="login successful" style="text;html=1;align=center;verticalAlign=middle;resizable=0;points=[];autosize=1;strokeColor=none;fillColor=none;fontSize=18;fontColor=#100f0f;" vertex="1" parent="1">
                    <mxGeometry x="90" y="578" width="145" height="34" as="geometry"/>
                </mxCell>
                <mxCell id="40" value="" style="endArrow=classic;html=1;fontSize=18;fontColor=#fcf8f8;strokeWidth=3;strokeColor=#0a0000;" edge="1" parent="1">
                    <mxGeometry width="50" height="50" relative="1" as="geometry">
                        <mxPoint x="493" y="553" as="sourcePoint"/>
                        <mxPoint x="956" y="550" as="targetPoint"/>
                    </mxGeometry>
                </mxCell>
                <mxCell id="41" value="allow user to access screens" style="text;html=1;align=center;verticalAlign=middle;resizable=0;points=[];autosize=1;strokeColor=none;fillColor=none;fontSize=18;fontColor=#100f0f;" vertex="1" parent="1">
                    <mxGeometry x="724" y="556" width="248" height="34" as="geometry"/>
                </mxCell>
                <mxCell id="42" value="" style="endArrow=classic;html=1;fontSize=18;fontColor=#fcf8f8;strokeWidth=3;strokeColor=#0a0000;" edge="1" parent="1">
                    <mxGeometry width="50" height="50" relative="1" as="geometry">
                        <mxPoint x="736" y="351.67" as="sourcePoint"/>
                        <mxPoint x="954" y="352" as="targetPoint"/>
                    </mxGeometry>
                </mxCell>
                <mxCell id="43" value="provide authorization for&lt;br&gt;&amp;nbsp;access" style="text;html=1;align=center;verticalAlign=middle;resizable=0;points=[];autosize=1;strokeColor=none;fillColor=none;fontSize=18;fontColor=#100f0f;" vertex="1" parent="1">
                    <mxGeometry x="734" y="301.5" width="211" height="55" as="geometry"/>
                </mxCell>
                <mxCell id="44" value="" style="rounded=0;whiteSpace=wrap;html=1;" vertex="1" parent="1">
                    <mxGeometry x="60" y="957" width="20" height="560" as="geometry"/>
                </mxCell>
                <mxCell id="45" value="" style="endArrow=none;dashed=1;html=1;strokeWidth=8;strokeColor=#1b1818;rounded=0;endSize=6;jumpSize=2;startArrow=none;" edge="1" source="47" parent="1">
                    <mxGeometry width="50" height="50" relative="1" as="geometry">
                        <mxPoint x="289" y="1517" as="sourcePoint"/>
                        <mxPoint x="289" y="957" as="targetPoint"/>
                    </mxGeometry>
                </mxCell>
                <mxCell id="46" value="" style="endArrow=none;dashed=1;html=1;strokeWidth=8;strokeColor=#1b1818;rounded=0;endSize=6;jumpSize=2;" edge="1" target="47" parent="1">
                    <mxGeometry width="50" height="50" relative="1" as="geometry">
                        <mxPoint x="289" y="1517.0000000000002" as="sourcePoint"/>
                        <mxPoint x="289" y="957" as="targetPoint"/>
                    </mxGeometry>
                </mxCell>
                <mxCell id="47" value="" style="rounded=0;whiteSpace=wrap;html=1;strokeColor=#BD7000;fillColor=#f0a30a;fontColor=#000000;" vertex="1" parent="1">
                    <mxGeometry x="279" y="1077" width="20" height="60" as="geometry"/>
                </mxCell>
                <mxCell id="48" value="" style="endArrow=none;dashed=1;html=1;strokeWidth=8;strokeColor=#1b1818;rounded=0;endSize=6;jumpSize=2;startArrow=none;" edge="1" source="50" parent="1">
                    <mxGeometry width="50" height="50" relative="1" as="geometry">
                        <mxPoint x="509" y="1517" as="sourcePoint"/>
                        <mxPoint x="509.0000000000002" y="957" as="targetPoint"/>
                    </mxGeometry>
                </mxCell>
                <mxCell id="49" value="" style="endArrow=none;dashed=1;html=1;strokeWidth=8;strokeColor=#1b1818;rounded=0;endSize=6;jumpSize=2;" edge="1" target="50" parent="1">
                    <mxGeometry width="50" height="50" relative="1" as="geometry">
                        <mxPoint x="509.0000000000002" y="1517.0000000000002" as="sourcePoint"/>
                        <mxPoint x="509" y="957" as="targetPoint"/>
                    </mxGeometry>
                </mxCell>
                <mxCell id="50" value="" style="rounded=0;whiteSpace=wrap;html=1;strokeColor=#BD7000;fillColor=#f0a30a;fontColor=#000000;" vertex="1" parent="1">
                    <mxGeometry x="497" y="1130" width="20" height="60" as="geometry"/>
                </mxCell>
                <mxCell id="51" value="" style="endArrow=none;dashed=1;html=1;strokeWidth=8;strokeColor=#1b1818;rounded=0;endSize=6;jumpSize=2;startArrow=none;" edge="1" parent="1">
                    <mxGeometry width="50" height="50" relative="1" as="geometry">
                        <mxPoint x="744" y="1181" as="sourcePoint"/>
                        <mxPoint x="749" y="957" as="targetPoint"/>
                    </mxGeometry>
                </mxCell>
                <mxCell id="52" value="" style="endArrow=none;dashed=1;html=1;strokeWidth=8;strokeColor=#1b1818;rounded=0;endSize=6;jumpSize=2;" edge="1" target="53" parent="1">
                    <mxGeometry width="50" height="50" relative="1" as="geometry">
                        <mxPoint x="749" y="1517.0000000000002" as="sourcePoint"/>
                        <mxPoint x="749" y="957" as="targetPoint"/>
                    </mxGeometry>
                </mxCell>
                <mxCell id="53" value="" style="rounded=0;whiteSpace=wrap;html=1;strokeColor=#BD7000;fillColor=#f0a30a;fontColor=#000000;" vertex="1" parent="1">
                    <mxGeometry x="731" y="1183" width="20" height="60" as="geometry"/>
                </mxCell>
                <mxCell id="54" value="" style="endArrow=none;dashed=1;html=1;strokeWidth=8;strokeColor=#1b1818;rounded=0;endSize=6;jumpSize=2;startArrow=none;" edge="1" source="56" parent="1">
                    <mxGeometry width="50" height="50" relative="1" as="geometry">
                        <mxPoint x="988" y="1517" as="sourcePoint"/>
                        <mxPoint x="988" y="957" as="targetPoint"/>
                    </mxGeometry>
                </mxCell>
                <mxCell id="55" value="" style="endArrow=none;dashed=1;html=1;strokeWidth=8;strokeColor=#1b1818;rounded=0;endSize=6;jumpSize=2;" edge="1" target="56" parent="1">
                    <mxGeometry width="50" height="50" relative="1" as="geometry">
                        <mxPoint x="988" y="1517.0000000000002" as="sourcePoint"/>
                        <mxPoint x="988" y="957" as="targetPoint"/>
                    </mxGeometry>
                </mxCell>
                <mxCell id="56" value="" style="rounded=0;whiteSpace=wrap;html=1;strokeColor=#BD7000;fillColor=#f0a30a;fontColor=#000000;" vertex="1" parent="1">
                    <mxGeometry x="978" y="1077" width="20" height="60" as="geometry"/>
                </mxCell>
                <mxCell id="57" value="Actor" style="shape=umlActor;verticalLabelPosition=bottom;verticalAlign=top;html=1;outlineConnect=0;strokeColor=#1d1d1b;strokeWidth=5;" vertex="1" parent="1">
                    <mxGeometry x="55" y="884" width="30" height="60" as="geometry"/>
                </mxCell>
                <mxCell id="58" value="&lt;font color=&quot;#f3f1f1&quot;&gt;&lt;span style=&quot;font-size: 16px;&quot;&gt;&lt;b&gt;Camera Screen&lt;/b&gt;&lt;/span&gt;&lt;/font&gt;" style="rounded=0;whiteSpace=wrap;html=1;strokeColor=#C73500;strokeWidth=5;fillColor=#fa6800;fontColor=#000000;" vertex="1" parent="1">
                    <mxGeometry x="212.5" y="899" width="153" height="42" as="geometry"/>
                </mxCell>
                <mxCell id="59" value="&lt;font color=&quot;#fcf8f8&quot;&gt;&lt;span style=&quot;font-size: 18px;&quot;&gt;&lt;b&gt;Prediction&lt;/b&gt;&lt;/span&gt;&lt;/font&gt;" style="rounded=0;whiteSpace=wrap;html=1;strokeColor=#C73500;strokeWidth=5;fillColor=#fa6800;fontColor=#000000;" vertex="1" parent="1">
                    <mxGeometry x="438" y="899" width="153" height="42" as="geometry"/>
                </mxCell>
                <mxCell id="60" value="&lt;font color=&quot;#fcf8f8&quot;&gt;&lt;span style=&quot;font-size: 18px;&quot;&gt;&lt;b&gt;Treatment&lt;/b&gt;&lt;/span&gt;&lt;/font&gt;" style="rounded=0;whiteSpace=wrap;html=1;strokeColor=#C73500;strokeWidth=5;fillColor=#fa6800;fontColor=#000000;" vertex="1" parent="1">
                    <mxGeometry x="674" y="896" width="153" height="42" as="geometry"/>
                </mxCell>
                <mxCell id="61" value="&lt;font color=&quot;#fcf8f8&quot;&gt;&lt;span style=&quot;font-size: 18px;&quot;&gt;&lt;b&gt;Cloud Storage&lt;/b&gt;&lt;/span&gt;&lt;/font&gt;" style="rounded=0;whiteSpace=wrap;html=1;strokeColor=#C73500;strokeWidth=5;fillColor=#fa6800;fontColor=#000000;" vertex="1" parent="1">
                    <mxGeometry x="899.5" y="896" width="153" height="42" as="geometry"/>
                </mxCell>
                <mxCell id="62" value="" style="endArrow=classic;html=1;fontSize=18;fontColor=#fcf8f8;strokeWidth=3;strokeColor=#0a0000;" edge="1" parent="1">
                    <mxGeometry width="50" height="50" relative="1" as="geometry">
                        <mxPoint x="83" y="1086" as="sourcePoint"/>
                        <mxPoint x="279" y="1086" as="targetPoint"/>
                    </mxGeometry>
                </mxCell>
                <mxCell id="63" value="" style="endArrow=classic;html=1;fontSize=18;fontColor=#fcf8f8;strokeWidth=3;strokeColor=#0a0000;" edge="1" parent="1">
                    <mxGeometry width="50" height="50" relative="1" as="geometry">
                        <mxPoint x="299" y="1135.67" as="sourcePoint"/>
                        <mxPoint x="494.9999999999998" y="1135.67" as="targetPoint"/>
                    </mxGeometry>
                </mxCell>
                <mxCell id="64" value="" style="endArrow=classic;html=1;fontSize=18;fontColor=#fcf8f8;strokeWidth=3;strokeColor=#0a0000;" edge="1" parent="1">
                    <mxGeometry width="50" height="50" relative="1" as="geometry">
                        <mxPoint x="528" y="1190" as="sourcePoint"/>
                        <mxPoint x="724" y="1190" as="targetPoint"/>
                    </mxGeometry>
                </mxCell>
                <mxCell id="66" value="" style="endArrow=classic;html=1;fontSize=18;fontColor=#fcf8f8;strokeWidth=3;strokeColor=#0a0000;dashed=1;" edge="1" parent="1">
                    <mxGeometry width="50" height="50" relative="1" as="geometry">
                        <mxPoint x="501" y="1364" as="sourcePoint"/>
                        <mxPoint x="297" y="1364" as="targetPoint"/>
                    </mxGeometry>
                </mxCell>
                <mxCell id="68" value="Navigate to screen" style="text;html=1;align=center;verticalAlign=middle;resizable=0;points=[];autosize=1;strokeColor=none;fillColor=none;fontSize=18;fontColor=#100f0f;" vertex="1" parent="1">
                    <mxGeometry x="90" y="1094" width="168" height="34" as="geometry"/>
                </mxCell>
                <mxCell id="69" value="capture image" style="text;html=1;align=center;verticalAlign=middle;resizable=0;points=[];autosize=1;strokeColor=none;fillColor=none;fontSize=18;fontColor=#100f0f;" vertex="1" parent="1">
                    <mxGeometry x="323" y="1096" width="132" height="34" as="geometry"/>
                </mxCell>
                <mxCell id="70" value="prediction unsuccessful" style="text;html=1;align=center;verticalAlign=middle;resizable=0;points=[];autosize=1;strokeColor=none;fillColor=none;fontSize=18;fontColor=#100f0f;" vertex="1" parent="1">
                    <mxGeometry x="303" y="1321" width="205" height="34" as="geometry"/>
                </mxCell>
                <mxCell id="71" value="prediction successful" style="text;html=1;align=center;verticalAlign=middle;resizable=0;points=[];autosize=1;strokeColor=none;fillColor=none;fontSize=18;fontColor=#100f0f;" vertex="1" parent="1">
                    <mxGeometry x="524" y="1149" width="185" height="34" as="geometry"/>
                </mxCell>
                <mxCell id="76" value="" style="endArrow=classic;html=1;fontSize=18;fontColor=#fcf8f8;strokeWidth=3;strokeColor=#0a0000;dashed=1;" edge="1" parent="1">
                    <mxGeometry width="50" height="50" relative="1" as="geometry">
                        <mxPoint x="756" y="1188.67" as="sourcePoint"/>
                        <mxPoint x="974" y="1189" as="targetPoint"/>
                    </mxGeometry>
                </mxCell>
                <mxCell id="77" value="internet" style="text;html=1;align=center;verticalAlign=middle;resizable=0;points=[];autosize=1;strokeColor=none;fillColor=none;fontSize=18;fontColor=#100f0f;" vertex="1" parent="1">
                    <mxGeometry x="818" y="1146" width="78" height="34" as="geometry"/>
                </mxCell>
                <mxCell id="78" value="" style="endArrow=none;dashed=1;html=1;strokeWidth=8;strokeColor=#1b1818;rounded=0;endSize=6;jumpSize=2;startArrow=none;" edge="1" source="79" parent="1">
                    <mxGeometry width="50" height="50" relative="1" as="geometry">
                        <mxPoint x="1192.5" y="1517" as="sourcePoint"/>
                        <mxPoint x="1192.5" y="957" as="targetPoint"/>
                    </mxGeometry>
                </mxCell>
                <mxCell id="79" value="" style="rounded=0;whiteSpace=wrap;html=1;strokeColor=#BD7000;fillColor=#f0a30a;fontColor=#000000;" vertex="1" parent="1">
                    <mxGeometry x="1182.5" y="1077" width="20" height="60" as="geometry"/>
                </mxCell>
                <mxCell id="80" value="&lt;font color=&quot;#fcf8f8&quot;&gt;&lt;span style=&quot;font-size: 18px;&quot;&gt;&lt;b&gt;Local Storage&lt;/b&gt;&lt;/span&gt;&lt;/font&gt;" style="rounded=0;whiteSpace=wrap;html=1;strokeColor=#C73500;strokeWidth=5;fillColor=#fa6800;fontColor=#000000;" vertex="1" parent="1">
                    <mxGeometry x="1104" y="896" width="153" height="42" as="geometry"/>
                </mxCell>
                <mxCell id="81" value="" style="endArrow=none;dashed=1;html=1;strokeWidth=8;strokeColor=#1b1818;rounded=0;endSize=6;jumpSize=2;" edge="1" parent="1">
                    <mxGeometry width="50" height="50" relative="1" as="geometry">
                        <mxPoint x="1191.73" y="1520" as="sourcePoint"/>
                        <mxPoint x="1191.73" y="1140" as="targetPoint"/>
                    </mxGeometry>
                </mxCell>
                <mxCell id="82" value="" style="endArrow=classic;html=1;fontSize=18;fontColor=#fcf8f8;strokeWidth=3;strokeColor=#0a0000;dashed=1;" edge="1" parent="1">
                    <mxGeometry width="50" height="50" relative="1" as="geometry">
                        <mxPoint x="756" y="1241.8200000000002" as="sourcePoint"/>
                        <mxPoint x="1181" y="1242" as="targetPoint"/>
                    </mxGeometry>
                </mxCell>
                <mxCell id="83" value="no internet" style="text;html=1;align=center;verticalAlign=middle;resizable=0;points=[];autosize=1;strokeColor=none;fillColor=none;fontSize=18;fontColor=#100f0f;" vertex="1" parent="1">
                    <mxGeometry x="823" y="1250" width="103" height="34" as="geometry"/>
                </mxCell>
                <mxCell id="84" value="" style="endArrow=classic;html=1;fontSize=18;fontColor=#fcf8f8;strokeWidth=3;strokeColor=#0a0000;dashed=1;" edge="1" parent="1">
                    <mxGeometry width="50" height="50" relative="1" as="geometry">
                        <mxPoint x="980" y="1416" as="sourcePoint"/>
                        <mxPoint x="302" y="1416" as="targetPoint"/>
                    </mxGeometry>
                </mxCell>
                <mxCell id="85" value="" style="endArrow=classic;html=1;fontSize=18;fontColor=#fcf8f8;strokeWidth=3;strokeColor=#0a0000;dashed=1;" edge="1" parent="1">
                    <mxGeometry width="50" height="50" relative="1" as="geometry">
                        <mxPoint x="1182.5" y="1474" as="sourcePoint"/>
                        <mxPoint x="296" y="1474" as="targetPoint"/>
                    </mxGeometry>
                </mxCell>
                <mxCell id="86" value="storage successful" style="text;html=1;align=center;verticalAlign=middle;resizable=0;points=[];autosize=1;strokeColor=none;fillColor=none;fontSize=18;fontColor=#100f0f;" vertex="1" parent="1">
                    <mxGeometry x="775" y="1370" width="167" height="34" as="geometry"/>
                </mxCell>
                <mxCell id="87" value="storage successful" style="text;html=1;align=center;verticalAlign=middle;resizable=0;points=[];autosize=1;strokeColor=none;fillColor=none;fontSize=18;fontColor=#100f0f;" vertex="1" parent="1">
                    <mxGeometry x="1004" y="1431" width="167" height="34" as="geometry"/>
                </mxCell>
            </root>
        </mxGraphModel>
    </diagram>
</mxfile>